{
	"patcher" : 	{
		"fileversion" : 1,
		"appversion" : 		{
			"major" : 8,
			"minor" : 6,
			"revision" : 0,
			"architecture" : "x64",
			"modernui" : 1
		}
,
		"classnamespace" : "box",
		"rect" : [ 34.0, 77.0, 1437.0, 844.0 ],
		"bglocked" : 0,
		"openinpresentation" : 0,
		"default_fontsize" : 12.0,
		"default_fontface" : 0,
		"default_fontname" : "Arial",
		"gridonopen" : 1,
		"gridsize" : [ 15.0, 15.0 ],
		"gridsnaponopen" : 1,
		"objectsnaponopen" : 1,
		"statusbarvisible" : 2,
		"toolbarvisible" : 1,
		"lefttoolbarpinned" : 0,
		"toptoolbarpinned" : 0,
		"righttoolbarpinned" : 0,
		"bottomtoolbarpinned" : 0,
		"toolbars_unpinned_last_save" : 0,
		"tallnewobj" : 0,
		"boxanimatetime" : 200,
		"enablehscroll" : 1,
		"enablevscroll" : 1,
		"devicewidth" : 0.0,
		"description" : "",
		"digest" : "",
		"tags" : "",
		"style" : "",
		"subpatcher_template" : "",
		"assistshowspatchername" : 0,
		"boxes" : [ 			{
				"box" : 				{
					"bgcolor" : [ 0.2, 0.2, 0.2, 1.0 ],
					"bubble_bgcolor" : [ 0.0, 0.0, 0.0, 1.0 ],
					"bubbleusescolors" : 1,
					"fontname" : "Candara",
					"fontsize" : 14.0,
					"id" : "obj-32",
					"maxclass" : "comment",
					"numinlets" : 1,
					"numoutlets" : 0,
					"patching_rect" : [ 109.397143721580505, 786.170207142829895, 197.872339010238647, 24.0 ],
					"presentation" : 1,
					"presentation_rect" : [ 72.684131801128387, 522.340421795845032, 197.872339010238647, 24.0 ],
					"text" : "Change lighting to adjust width",
					"textcolor" : [ 1.0, 1.0, 1.0, 1.0 ]
				}

			}
, 			{
				"box" : 				{
					"bgcolor" : [ 0.2, 0.2, 0.2, 1.0 ],
					"bubble_bgcolor" : [ 0.0, 0.0, 0.0, 1.0 ],
					"bubbleusescolors" : 1,
					"fontname" : "Candara",
					"fontsize" : 14.0,
					"id" : "obj-29",
					"maxclass" : "comment",
					"numinlets" : 1,
					"numoutlets" : 0,
					"patching_rect" : [ 97.176782071590424, 753.191483974456787, 163.156531155109406, 24.0 ],
					"presentation" : 1,
					"presentation_rect" : [ 72.684131801128387, 486.0, 163.156531155109406, 24.0 ],
					"text" : "Turn knob to adjust regen",
					"textcolor" : [ 1.0, 1.0, 1.0, 1.0 ]
				}

			}
, 			{
				"box" : 				{
					"bgcolor" : [ 0.2, 0.2, 0.2, 1.0 ],
					"bubble_bgcolor" : [ 0.0, 0.0, 0.0, 1.0 ],
					"bubbleusescolors" : 1,
					"fontname" : "Candara",
					"fontsize" : 14.0,
					"id" : "obj-27",
					"maxclass" : "comment",
					"numinlets" : 1,
					"numoutlets" : 0,
					"patching_rect" : [ 86.833313226699829, 714.893611907958984, 186.170211434364319, 24.0 ],
					"presentation" : 1,
					"presentation_rect" : [ 72.684131801128387, 448.936167001724243, 186.170211434364319, 24.0 ],
					"text" : "Press button to toggle bypass",
					"textcolor" : [ 1.0, 1.0, 1.0, 1.0 ]
				}

			}
, 			{
				"box" : 				{
					"id" : "obj-21",
					"maxclass" : "comment",
					"numinlets" : 1,
					"numoutlets" : 0,
					"patching_rect" : [ 444.71425986289978, 460.0, 50.0, 20.0 ],
					"text" : "knob 2"
				}

			}
, 			{
				"box" : 				{
					"format" : 6,
					"id" : "obj-18",
					"maxclass" : "flonum",
					"numinlets" : 1,
					"numoutlets" : 2,
					"outlettype" : [ "", "bang" ],
					"parameter_enable" : 0,
					"patching_rect" : [ 411.702124714851379, 595.74467658996582, 50.0, 22.0 ]
				}

			}
, 			{
				"box" : 				{
					"id" : "obj-134",
					"maxclass" : "newobj",
					"numinlets" : 6,
					"numoutlets" : 1,
					"outlettype" : [ "" ],
					"patching_rect" : [ 402.071381568908691, 530.851060032844543, 103.0, 22.0 ],
					"text" : "scale 0 1023 0. 1."
				}

			}
, 			{
				"box" : 				{
					"id" : "obj-129",
					"maxclass" : "comment",
					"numinlets" : 1,
					"numoutlets" : 0,
					"patching_rect" : [ 315.0, 460.0, 50.0, 20.0 ],
					"text" : "knob 1"
				}

			}
, 			{
				"box" : 				{
					"id" : "obj-132",
					"maxclass" : "comment",
					"numinlets" : 1,
					"numoutlets" : 0,
					"patching_rect" : [ 568.261843919754028, 460.0, 76.0, 20.0 ],
					"text" : "light sensor"
				}

			}
, 			{
				"box" : 				{
					"id" : "obj-12",
					"maxclass" : "newobj",
					"numinlets" : 6,
					"numoutlets" : 1,
					"outlettype" : [ "" ],
					"patching_rect" : [ 183.333313226699829, 608.0, 77.0, 22.0 ],
					"text" : "scale 0 1 1 0"
				}

			}
, 			{
				"box" : 				{
					"id" : "obj-13",
					"maxclass" : "newobj",
					"numinlets" : 1,
					"numoutlets" : 1,
					"outlettype" : [ "" ],
					"patching_rect" : [ 183.333313226699829, 645.0, 175.0, 22.0 ],
					"text" : "pattrforward bp.Flanger:bypass"
				}

			}
, 			{
				"box" : 				{
					"id" : "obj-5",
					"maxclass" : "newobj",
					"numinlets" : 1,
					"numoutlets" : 1,
					"outlettype" : [ "" ],
					"patching_rect" : [ 415.957443833351135, 672.340420722961426, 172.0, 22.0 ],
					"text" : "pattrforward bp.Flanger:Regen"
				}

			}
, 			{
				"box" : 				{
					"id" : "obj-52",
					"maxclass" : "newobj",
					"numinlets" : 1,
					"numoutlets" : 1,
					"outlettype" : [ "" ],
					"patching_rect" : [ 565.0, 627.0, 167.0, 22.0 ],
					"text" : "pattrforward bp.Flanger:Width"
				}

			}
, 			{
				"box" : 				{
					"id" : "obj-69",
					"maxclass" : "newobj",
					"numinlets" : 1,
					"numoutlets" : 1,
					"outlettype" : [ "" ],
					"patching_rect" : [ 466.0, 93.0, 73.0, 22.0 ],
					"saved_object_attributes" : 					{
						"client_rect" : [ 44, 70, 444, 804 ],
						"parameter_enable" : 0,
						"parameter_mappable" : 0,
						"storage_rect" : [ 583, 69, 1034, 197 ]
					}
,
					"text" : "pattrstorage",
					"varname" : "u940008059"
				}

			}
, 			{
				"box" : 				{
					"format" : 6,
					"id" : "obj-23",
					"maxclass" : "flonum",
					"numinlets" : 1,
					"numoutlets" : 2,
					"outlettype" : [ "", "bang" ],
					"parameter_enable" : 0,
					"patching_rect" : [ 554.761843919754028, 578.571365118026733, 50.0, 22.0 ]
				}

			}
, 			{
				"box" : 				{
					"id" : "obj-11",
					"maxclass" : "newobj",
					"numinlets" : 6,
					"numoutlets" : 1,
					"outlettype" : [ "" ],
					"patching_rect" : [ 554.761843919754028, 535.714226961135864, 130.0, 22.0 ],
					"text" : "scale 0 1023 0. 20000."
				}

			}
, 			{
				"box" : 				{
					"id" : "obj-30",
					"maxclass" : "number",
					"numinlets" : 1,
					"numoutlets" : 2,
					"outlettype" : [ "", "bang" ],
					"parameter_enable" : 0,
					"patching_rect" : [ 554.761843919754028, 483.333280324935913, 50.0, 22.0 ]
				}

			}
, 			{
				"box" : 				{
					"id" : "obj-33",
					"maxclass" : "number",
					"numinlets" : 1,
					"numoutlets" : 2,
					"outlettype" : [ "", "bang" ],
					"parameter_enable" : 0,
					"patching_rect" : [ 428.571381568908691, 483.333280324935913, 50.0, 22.0 ]
				}

			}
, 			{
				"box" : 				{
					"id" : "obj-35",
					"maxclass" : "number",
					"numinlets" : 1,
					"numoutlets" : 2,
					"outlettype" : [ "", "bang" ],
					"parameter_enable" : 0,
					"patching_rect" : [ 297.619014978408813, 483.333280324935913, 50.0, 22.0 ]
				}

			}
, 			{
				"box" : 				{
					"id" : "obj-125",
					"maxclass" : "toggle",
					"numinlets" : 1,
					"numoutlets" : 1,
					"outlettype" : [ "int" ],
					"parameter_enable" : 0,
					"patching_rect" : [ 183.333313226699829, 557.142796039581299, 24.0, 24.0 ]
				}

			}
, 			{
				"box" : 				{
					"id" : "obj-37",
					"maxclass" : "message",
					"numinlets" : 2,
					"numoutlets" : 1,
					"outlettype" : [ "" ],
					"patching_rect" : [ 219.047595024108887, 559.523748159408569, 50.0, 22.0 ],
					"text" : "0"
				}

			}
, 			{
				"box" : 				{
					"id" : "obj-67",
					"maxclass" : "newobj",
					"numinlets" : 6,
					"numoutlets" : 1,
					"outlettype" : [ "" ],
					"patching_rect" : [ 183.333313226699829, 519.047562122344971, 77.0, 22.0 ],
					"text" : "scale 0 1 1 0"
				}

			}
, 			{
				"box" : 				{
					"id" : "obj-70",
					"maxclass" : "comment",
					"numinlets" : 1,
					"numoutlets" : 0,
					"patching_rect" : [ 193.833313226699829, 460.0, 56.0, 20.0 ],
					"text" : "button 1"
				}

			}
, 			{
				"box" : 				{
					"id" : "obj-38",
					"maxclass" : "number",
					"numinlets" : 1,
					"numoutlets" : 2,
					"outlettype" : [ "", "bang" ],
					"parameter_enable" : 0,
					"patching_rect" : [ 183.333313226699829, 483.333280324935913, 50.0, 22.0 ]
				}

			}
, 			{
				"box" : 				{
					"id" : "obj-39",
					"maxclass" : "newobj",
					"numinlets" : 1,
					"numoutlets" : 4,
					"outlettype" : [ "int", "int", "int", "int" ],
					"patching_rect" : [ 164.285696268081665, 428.571381568908691, 409.0, 22.0 ],
					"text" : "unpack i i i i"
				}

			}
, 			{
				"box" : 				{
					"id" : "obj-40",
					"maxclass" : "message",
					"numinlets" : 2,
					"numoutlets" : 1,
					"outlettype" : [ "" ],
					"patching_rect" : [ 40.476186037063599, 397.619004011154175, 89.0, 22.0 ],
					"text" : "1 395 790 837"
				}

			}
, 			{
				"box" : 				{
					"id" : "obj-41",
					"maxclass" : "message",
					"numinlets" : 2,
					"numoutlets" : 1,
					"outlettype" : [ "" ],
					"patching_rect" : [ 42.857138156890869, 345.238057374954224, 95.0, 22.0 ],
					"text" : "\"1 395 790 837\""
				}

			}
, 			{
				"box" : 				{
					"id" : "obj-48",
					"maxclass" : "comment",
					"numinlets" : 1,
					"numoutlets" : 0,
					"patching_rect" : [ 235.71425986289978, 359.523770093917847, 259.0, 20.0 ],
					"text" : "convert symbols into numbers/messages"
				}

			}
, 			{
				"box" : 				{
					"id" : "obj-53",
					"maxclass" : "comment",
					"numinlets" : 1,
					"numoutlets" : 0,
					"patching_rect" : [ 209.523786544799805, 311.904727697372437, 212.0, 20.0 ],
					"text" : "convert intergers into symbols"
				}

			}
, 			{
				"box" : 				{
					"id" : "obj-54",
					"maxclass" : "comment",
					"numinlets" : 1,
					"numoutlets" : 0,
					"patching_rect" : [ 242.857116222381592, 271.428541660308838, 251.0, 20.0 ],
					"text" : "group messages together 100 arbitrary/large"
				}

			}
, 			{
				"box" : 				{
					"id" : "obj-55",
					"maxclass" : "comment",
					"numinlets" : 1,
					"numoutlets" : 0,
					"patching_rect" : [ 223.809499263763428, 235.71425986289978, 212.0, 20.0 ],
					"text" : "look for new line characters"
				}

			}
, 			{
				"box" : 				{
					"id" : "obj-56",
					"maxclass" : "newobj",
					"numinlets" : 1,
					"numoutlets" : 1,
					"outlettype" : [ "" ],
					"patching_rect" : [ 154.761887788772583, 359.523770093917847, 71.0, 22.0 ],
					"text" : "fromsymbol"
				}

			}
, 			{
				"box" : 				{
					"id" : "obj-57",
					"maxclass" : "newobj",
					"numinlets" : 3,
					"numoutlets" : 1,
					"outlettype" : [ "int" ],
					"patching_rect" : [ 154.761887788772583, 311.904727697372437, 40.0, 22.0 ],
					"text" : "itoa"
				}

			}
, 			{
				"box" : 				{
					"id" : "obj-58",
					"maxclass" : "newobj",
					"numinlets" : 2,
					"numoutlets" : 2,
					"outlettype" : [ "", "" ],
					"patching_rect" : [ 154.761887788772583, 276.190445899963379, 75.0, 22.0 ],
					"text" : "zl group 100"
				}

			}
, 			{
				"box" : 				{
					"id" : "obj-59",
					"maxclass" : "newobj",
					"numinlets" : 3,
					"numoutlets" : 3,
					"outlettype" : [ "bang", "bang", "" ],
					"patching_rect" : [ 154.761887788772583, 235.71425986289978, 57.0, 22.0 ],
					"text" : "sel 13 10"
				}

			}
, 			{
				"box" : 				{
					"id" : "obj-60",
					"maxclass" : "newobj",
					"numinlets" : 2,
					"numoutlets" : 1,
					"outlettype" : [ "bang" ],
					"patching_rect" : [ 73.809515714645386, 116.666653871536255, 56.0, 22.0 ],
					"text" : "metro 10"
				}

			}
, 			{
				"box" : 				{
					"id" : "obj-61",
					"maxclass" : "message",
					"numinlets" : 2,
					"numoutlets" : 1,
					"outlettype" : [ "" ],
					"patching_rect" : [ 54.761898756027222, 202.380930185317993, 50.0, 22.0 ],
					"text" : "10"
				}

			}
, 			{
				"box" : 				{
					"id" : "obj-62",
					"maxclass" : "message",
					"numinlets" : 2,
					"numoutlets" : 1,
					"outlettype" : [ "" ],
					"patching_rect" : [ 135.714270830154419, 116.666653871536255, 39.0, 22.0 ],
					"text" : "port z"
				}

			}
, 			{
				"box" : 				{
					"id" : "obj-63",
					"maxclass" : "newobj",
					"numinlets" : 2,
					"numoutlets" : 2,
					"outlettype" : [ "bang", "" ],
					"patching_rect" : [ 135.714270830154419, 71.428563594818115, 93.0, 22.0 ],
					"text" : "sel 0"
				}

			}
, 			{
				"box" : 				{
					"id" : "obj-64",
					"maxclass" : "toggle",
					"numinlets" : 1,
					"numoutlets" : 1,
					"outlettype" : [ "int" ],
					"parameter_enable" : 0,
					"patching_rect" : [ 49.999994516372681, 30.952377557754517, 58.0, 58.0 ]
				}

			}
, 			{
				"box" : 				{
					"id" : "obj-65",
					"maxclass" : "message",
					"numinlets" : 2,
					"numoutlets" : 1,
					"outlettype" : [ "" ],
					"patching_rect" : [ 209.523786544799805, 116.666653871536255, 39.0, 22.0 ],
					"text" : "port h"
				}

			}
, 			{
				"box" : 				{
					"id" : "obj-66",
					"maxclass" : "message",
					"numinlets" : 2,
					"numoutlets" : 1,
					"outlettype" : [ "" ],
					"patching_rect" : [ 261.904733180999756, 116.666653871536255, 32.0, 22.0 ],
					"text" : "print"
				}

			}
, 			{
				"box" : 				{
					"id" : "obj-68",
					"maxclass" : "newobj",
					"numinlets" : 1,
					"numoutlets" : 2,
					"outlettype" : [ "int", "" ],
					"patching_rect" : [ 154.761887788772583, 171.428552627563477, 77.0, 22.0 ],
					"text" : "serial z 9600"
				}

			}
, 			{
				"box" : 				{
					"annotation" : "## View or monitor video input ##",
					"bgmode" : 1,
					"border" : 0,
					"clickthrough" : 0,
					"enablehscroll" : 0,
					"enablevscroll" : 0,
					"id" : "obj-9",
					"lockeddragscroll" : 0,
					"lockedsize" : 0,
					"maxclass" : "bpatcher",
					"name" : "vz.viewr.maxpat",
					"numinlets" : 1,
					"numoutlets" : 0,
					"offset" : [ 0.0, 0.0 ],
					"patching_rect" : [ 1112.765949487686157, 1178.723395824432373, 230.0, 208.0 ],
					"presentation" : 1,
					"presentation_rect" : [ 345.0, 87.692316055297852, 519.148932456970215, 470.212762594223022 ],
					"prototypename" : "pixl",
					"varname" : "viewr[4]",
					"viewvisibility" : 1
				}

			}
, 			{
				"box" : 				{
					"annotation" : "## Smoothly crossfade between two videos and composite them ##",
					"bgmode" : 1,
					"border" : 0,
					"clickthrough" : 0,
					"enablehscroll" : 0,
					"enablevscroll" : 0,
					"id" : "obj-8",
					"lockeddragscroll" : 0,
					"lockedsize" : 0,
					"maxclass" : "bpatcher",
					"name" : "vz.mixfadr.maxpat",
					"numinlets" : 4,
					"numoutlets" : 1,
					"offset" : [ 0.0, 0.0 ],
					"outlettype" : [ "jit_gl_texture" ],
					"patching_rect" : [ 1123.404247283935547, 972.340418577194214, 178.0, 130.0 ],
					"varname" : "mixfadr[1]",
					"viewvisibility" : 1
				}

			}
, 			{
				"box" : 				{
					"annotation" : "## View or monitor video input ##",
					"bgmode" : 1,
					"border" : 0,
					"clickthrough" : 0,
					"enablehscroll" : 0,
					"enablevscroll" : 0,
					"id" : "obj-17",
					"lockeddragscroll" : 0,
					"lockedsize" : 0,
					"maxclass" : "bpatcher",
					"name" : "vz.viewr.maxpat",
					"numinlets" : 1,
					"numoutlets" : 0,
					"offset" : [ 0.0, 0.0 ],
					"patching_rect" : [ 1402.127649545669556, 914.89361047744751, 240.0, 208.0 ],
					"prototypename" : "pixl",
					"varname" : "viewr[2]",
					"viewvisibility" : 1
				}

			}
, 			{
				"box" : 				{
					"annotation" : "## Average VIZZIE input data ##",
					"bgmode" : 1,
					"border" : 0,
					"clickthrough" : 0,
					"enablehscroll" : 0,
					"enablevscroll" : 0,
					"id" : "obj-28",
					"lockeddragscroll" : 0,
					"lockedsize" : 0,
					"maxclass" : "bpatcher",
					"name" : "vz.averagr.maxpat",
					"numinlets" : 2,
					"numoutlets" : 2,
					"offset" : [ 0.0, 0.0 ],
					"outlettype" : [ "", "" ],
					"patching_rect" : [ 1248.936161279678345, 231.914891958236694, 188.0, 130.0 ],
					"prototypename" : "pixl",
					"varname" : "smoothr",
					"viewvisibility" : 1
				}

			}
, 			{
				"box" : 				{
					"annotation" : "## Fader/UI display for VIZZIE data ##",
					"bgmode" : 1,
					"border" : 0,
					"clickthrough" : 0,
					"enablehscroll" : 0,
					"enablevscroll" : 0,
					"id" : "obj-24",
					"lockeddragscroll" : 0,
					"lockedsize" : 0,
					"maxclass" : "bpatcher",
					"name" : "vz.fadr.maxpat",
					"numinlets" : 1,
					"numoutlets" : 1,
					"offset" : [ 0.0, 0.0 ],
					"outlettype" : [ "" ],
					"patching_rect" : [ 1389.361692190170288, 404.255316257476807, 84.0, 196.0 ],
					"varname" : "fadr[2]",
					"viewvisibility" : 1
				}

			}
, 			{
				"box" : 				{
					"annotation" : "## Funhouse mirror distortion video effect ##",
					"bgmode" : 1,
					"border" : 0,
					"clickthrough" : 0,
					"enablehscroll" : 0,
					"enablevscroll" : 0,
					"id" : "obj-15",
					"lockeddragscroll" : 0,
					"lockedsize" : 0,
					"maxclass" : "bpatcher",
					"name" : "vz.reflectr.maxpat",
					"numinlets" : 14,
					"numoutlets" : 1,
					"offset" : [ 0.0, 0.0 ],
					"outlettype" : [ "jit_gl_texture" ],
					"patching_rect" : [ 1364.05399988247791, 730.851058602333069, 348.0, 160.0 ],
					"prototypename" : "pixl",
					"varname" : "reflectr",
					"viewvisibility" : 1
				}

			}
, 			{
				"box" : 				{
					"annotation" : "## Convert audio input to VIZZIE data output ##",
					"bgmode" : 1,
					"border" : 0,
					"clickthrough" : 0,
					"enablehscroll" : 0,
					"enablevscroll" : 0,
					"id" : "obj-34",
					"lockeddragscroll" : 0,
					"lockedsize" : 0,
					"maxclass" : "bpatcher",
					"name" : "vz.audio2vizzie.maxpat",
					"numinlets" : 1,
					"numoutlets" : 2,
					"offset" : [ 0.0, 0.0 ],
					"outlettype" : [ "", "" ],
					"patching_rect" : [ 1134.042545080184937, 134.04255223274231, 120.0, 54.0 ],
					"prototypename" : "pixl",
					"varname" : "audio2vizzie",
					"viewvisibility" : 1
				}

			}
, 			{
				"box" : 				{
					"bgmode" : 0,
					"border" : 0,
					"clickthrough" : 0,
					"enablehscroll" : 0,
					"enablevscroll" : 0,
					"extract" : 1,
					"id" : "obj-10",
					"lockeddragscroll" : 0,
					"lockedsize" : 0,
					"maxclass" : "bpatcher",
					"name" : "bp.Flanger.maxpat",
					"numinlets" : 1,
					"numoutlets" : 2,
					"offset" : [ 0.0, 0.0 ],
					"outlettype" : [ "signal", "signal" ],
					"patching_rect" : [ 794.0, 152.0, 190.0, 116.0 ],
					"presentation" : 1,
					"presentation_rect" : [ 70.769237518310547, 320.000030517578125, 190.0, 116.0 ],
					"varname" : "bp.Flanger",
					"viewvisibility" : 1
				}

			}
, 			{
				"box" : 				{
					"bgmode" : 0,
					"border" : 0,
					"clickthrough" : 0,
					"enablehscroll" : 0,
					"enablevscroll" : 0,
					"extract" : 1,
					"id" : "obj-1",
					"lockeddragscroll" : 0,
					"lockedsize" : 0,
					"maxclass" : "bpatcher",
					"name" : "bp.Stereo.maxpat",
					"numinlets" : 2,
					"numoutlets" : 0,
					"offset" : [ 0.0, 0.0 ],
					"patching_rect" : [ 825.531908988952637, 295.744678735733032, 148.0, 116.0 ],
					"presentation" : 1,
					"presentation_rect" : [ 70.769237518310547, 196.923095703125, 151.0, 113.0 ],
					"varname" : "bp.Stereo[1]",
					"viewvisibility" : 1
				}

			}
, 			{
				"box" : 				{
					"basictuning" : 440,
					"clipheight" : 87.052703738212585,
					"data" : 					{
						"clips" : [ 							{
								"absolutepath" : "peppers.mp3",
								"filename" : "peppers.mp3",
								"filekind" : "audiofile",
								"id" : "u533001774",
								"selection" : [ 0.073684210526316, 0.420289855072464 ],
								"loop" : 1,
								"content_state" : 								{
									"loop" : 1
								}

							}
 ]
					}
,
					"followglobaltempo" : 0,
					"formantcorrection" : 0,
					"id" : "obj-4",
					"maxclass" : "playlist~",
					"mode" : "basic",
					"numinlets" : 1,
					"numoutlets" : 5,
					"originallength" : [ 0.0, "ticks" ],
					"originaltempo" : 120.0,
					"outlettype" : [ "signal", "signal", "signal", "", "dictionary" ],
					"parameter_enable" : 0,
					"patching_rect" : [ 944.680844306945801, 21.276595592498779, 262.33765983581543, 88.052703738212585 ],
					"pitchcorrection" : 0,
					"presentation" : 1,
					"presentation_rect" : [ 70.769237518310547, 87.692316055297852, 262.33765983581543, 88.052703738212585 ],
					"quality" : "basic",
					"timestretch" : [ 0 ]
				}

			}
, 			{
				"box" : 				{
					"annotation" : "## Convert R, G, and B video components to VIZZIE data ##",
					"bgmode" : 1,
					"border" : 0,
					"clickthrough" : 0,
					"enablehscroll" : 0,
					"enablevscroll" : 0,
					"id" : "obj-31",
					"lockeddragscroll" : 0,
					"lockedsize" : 0,
					"maxclass" : "bpatcher",
					"name" : "vz.analyzr.maxpat",
					"numinlets" : 5,
					"numoutlets" : 3,
					"offset" : [ 0.0, 0.0 ],
					"outlettype" : [ "", "", "" ],
					"patching_rect" : [ 878.723397970199585, 1178.723395824432373, 208.0, 113.0 ],
					"prototypename" : "pixl",
					"varname" : "analyzr",
					"viewvisibility" : 1
				}

			}
, 			{
				"box" : 				{
					"id" : "obj-25",
					"maxclass" : "message",
					"numinlets" : 2,
					"numoutlets" : 1,
					"outlettype" : [ "" ],
					"patching_rect" : [ 1185.106374502182007, 478.723400831222534, 104.0, 22.0 ],
					"text" : "read sparrow.mov"
				}

			}
, 			{
				"box" : 				{
					"id" : "obj-22",
					"maxclass" : "newobj",
					"numinlets" : 1,
					"numoutlets" : 1,
					"outlettype" : [ "bang" ],
					"patching_rect" : [ 1048.936162710189819, 425.531911849975586, 58.0, 22.0 ],
					"text" : "loadbang"
				}

			}
, 			{
				"box" : 				{
					"annotation" : "## Pixilate a video ##",
					"bgmode" : 1,
					"border" : 0,
					"clickthrough" : 0,
					"enablehscroll" : 0,
					"enablevscroll" : 0,
					"id" : "obj-7",
					"lockeddragscroll" : 0,
					"lockedsize" : 0,
					"maxclass" : "bpatcher",
					"name" : "vz.pixl8r.maxpat",
					"numinlets" : 3,
					"numoutlets" : 1,
					"offset" : [ 0.0, 0.0 ],
					"outlettype" : [ "jit_gl_texture" ],
					"patching_rect" : [ 806.382972955703735, 753.191483974456787, 128.0, 130.0 ],
					"prototypename" : "pixl",
					"varname" : "pixl8r",
					"viewvisibility" : 1
				}

			}
, 			{
				"box" : 				{
					"annotation" : "## Convert BEAP module output (control voltages/MIDI) to VIZZIE data ##",
					"bgmode" : 1,
					"border" : 0,
					"clickthrough" : 0,
					"enablehscroll" : 0,
					"enablevscroll" : 0,
					"id" : "obj-45",
					"lockeddragscroll" : 0,
					"lockedsize" : 0,
					"maxclass" : "bpatcher",
					"name" : "vz.beapconvertr.maxpat",
					"numinlets" : 2,
					"numoutlets" : 2,
					"offset" : [ 0.0, 0.0 ],
					"outlettype" : [ "", "" ],
					"patching_rect" : [ 655.319144248962402, 155.319147825241089, 108.0, 78.0 ],
					"prototypename" : "pixl",
					"varname" : "beapconvertr[1]",
					"viewvisibility" : 1
				}

			}
, 			{
				"box" : 				{
					"annotation" : "## Convert BEAP module output (control voltages/MIDI) to VIZZIE data ##",
					"bgmode" : 1,
					"border" : 0,
					"clickthrough" : 0,
					"enablehscroll" : 0,
					"enablevscroll" : 0,
					"id" : "obj-44",
					"lockeddragscroll" : 0,
					"lockedsize" : 0,
					"maxclass" : "bpatcher",
					"name" : "vz.beapconvertr.maxpat",
					"numinlets" : 2,
					"numoutlets" : 2,
					"offset" : [ 0.0, 0.0 ],
					"outlettype" : [ "", "" ],
					"patching_rect" : [ 521.276592016220093, 159.574466943740845, 108.0, 78.0 ],
					"prototypename" : "pixl",
					"varname" : "beapconvertr",
					"viewvisibility" : 1
				}

			}
, 			{
				"box" : 				{
					"bgmode" : 0,
					"border" : 0,
					"clickthrough" : 0,
					"enablehscroll" : 0,
					"enablevscroll" : 0,
					"extract" : 1,
					"id" : "obj-42",
					"lockeddragscroll" : 0,
					"lockedsize" : 0,
					"maxclass" : "bpatcher",
					"name" : "bp.Global Transport.maxpat",
					"numinlets" : 0,
					"numoutlets" : 0,
					"offset" : [ 0.0, 0.0 ],
					"patching_rect" : [ 1006.382971525192261, 270.212764024734497, 157.0, 116.0 ],
					"varname" : "bp.Global Transport",
					"viewvisibility" : 1
				}

			}
, 			{
				"box" : 				{
					"annotation" : "## View or monitor video input ##",
					"bgmode" : 1,
					"border" : 0,
					"clickthrough" : 0,
					"enablehscroll" : 0,
					"enablevscroll" : 0,
					"id" : "obj-19",
					"lockeddragscroll" : 0,
					"lockedsize" : 0,
					"maxclass" : "bpatcher",
					"name" : "vz.viewr.maxpat",
					"numinlets" : 1,
					"numoutlets" : 0,
					"offset" : [ 0.0, 0.0 ],
					"patching_rect" : [ 759.574462652206421, 910.638291358947754, 230.0, 208.0 ],
					"prototypename" : "pixl",
					"varname" : "viewr",
					"viewvisibility" : 1
				}

			}
, 			{
				"box" : 				{
					"annotation" : "## The VIZZIE video player/looper ##",
					"bgmode" : 1,
					"border" : 0,
					"clickthrough" : 0,
					"enablehscroll" : 0,
					"enablevscroll" : 0,
					"id" : "obj-6",
					"lockeddragscroll" : 0,
					"lockedsize" : 0,
					"maxclass" : "bpatcher",
					"name" : "vz.playr.maxpat",
					"numinlets" : 7,
					"numoutlets" : 2,
					"offset" : [ 0.0, 0.0 ],
					"outlettype" : [ "jit_gl_texture", "" ],
					"patching_rect" : [ 989.361695051193237, 536.170208930969238, 348.0, 158.0 ],
					"prototypename" : "pixl",
					"varname" : "playr",
					"viewvisibility" : 1
				}

			}
 ],
		"lines" : [ 			{
				"patchline" : 				{
					"destination" : [ "obj-1", 1 ],
					"source" : [ "obj-10", 1 ]
				}

			}
, 			{
				"patchline" : 				{
					"destination" : [ "obj-1", 0 ],
					"source" : [ "obj-10", 0 ]
				}

			}
, 			{
				"patchline" : 				{
					"destination" : [ "obj-23", 0 ],
					"source" : [ "obj-11", 0 ]
				}

			}
, 			{
				"patchline" : 				{
					"destination" : [ "obj-13", 0 ],
					"source" : [ "obj-12", 0 ]
				}

			}
, 			{
				"patchline" : 				{
					"destination" : [ "obj-12", 0 ],
					"source" : [ "obj-125", 0 ]
				}

			}
, 			{
				"patchline" : 				{
					"destination" : [ "obj-18", 0 ],
					"source" : [ "obj-134", 0 ]
				}

			}
, 			{
				"patchline" : 				{
					"destination" : [ "obj-17", 0 ],
					"order" : 1,
					"source" : [ "obj-15", 0 ]
				}

			}
, 			{
				"patchline" : 				{
					"destination" : [ "obj-8", 0 ],
					"order" : 0,
					"source" : [ "obj-15", 0 ]
				}

			}
, 			{
				"patchline" : 				{
					"destination" : [ "obj-5", 0 ],
					"source" : [ "obj-18", 0 ]
				}

			}
, 			{
				"patchline" : 				{
					"destination" : [ "obj-25", 0 ],
					"source" : [ "obj-22", 0 ]
				}

			}
, 			{
				"patchline" : 				{
					"destination" : [ "obj-52", 0 ],
					"source" : [ "obj-23", 0 ]
				}

			}
, 			{
				"patchline" : 				{
					"destination" : [ "obj-15", 2 ],
					"order" : 0,
					"source" : [ "obj-24", 0 ]
				}

			}
, 			{
				"patchline" : 				{
					"destination" : [ "obj-15", 1 ],
					"order" : 1,
					"source" : [ "obj-24", 0 ]
				}

			}
, 			{
				"patchline" : 				{
					"destination" : [ "obj-6", 6 ],
					"source" : [ "obj-25", 0 ]
				}

			}
, 			{
				"patchline" : 				{
					"destination" : [ "obj-24", 0 ],
					"source" : [ "obj-28", 0 ]
				}

			}
, 			{
				"patchline" : 				{
					"destination" : [ "obj-11", 0 ],
					"source" : [ "obj-30", 0 ]
				}

			}
, 			{
				"patchline" : 				{
					"destination" : [ "obj-134", 0 ],
					"source" : [ "obj-33", 0 ]
				}

			}
, 			{
				"patchline" : 				{
					"destination" : [ "obj-28", 0 ],
					"source" : [ "obj-34", 1 ]
				}

			}
, 			{
				"patchline" : 				{
					"destination" : [ "obj-67", 0 ],
					"source" : [ "obj-38", 0 ]
				}

			}
, 			{
				"patchline" : 				{
					"destination" : [ "obj-30", 0 ],
					"source" : [ "obj-39", 3 ]
				}

			}
, 			{
				"patchline" : 				{
					"destination" : [ "obj-33", 0 ],
					"source" : [ "obj-39", 2 ]
				}

			}
, 			{
				"patchline" : 				{
					"destination" : [ "obj-35", 0 ],
					"source" : [ "obj-39", 1 ]
				}

			}
, 			{
				"patchline" : 				{
					"destination" : [ "obj-38", 0 ],
					"source" : [ "obj-39", 0 ]
				}

			}
, 			{
				"patchline" : 				{
					"destination" : [ "obj-10", 0 ],
					"order" : 3,
					"source" : [ "obj-4", 0 ]
				}

			}
, 			{
				"patchline" : 				{
					"destination" : [ "obj-34", 0 ],
					"order" : 2,
					"source" : [ "obj-4", 0 ]
				}

			}
, 			{
				"patchline" : 				{
					"destination" : [ "obj-44", 0 ],
					"order" : 1,
					"source" : [ "obj-4", 0 ]
				}

			}
, 			{
				"patchline" : 				{
					"destination" : [ "obj-45", 0 ],
					"order" : 0,
					"source" : [ "obj-4", 0 ]
				}

			}
, 			{
				"patchline" : 				{
					"destination" : [ "obj-7", 1 ],
					"source" : [ "obj-44", 0 ]
				}

			}
, 			{
				"patchline" : 				{
					"destination" : [ "obj-7", 2 ],
					"source" : [ "obj-45", 0 ]
				}

			}
, 			{
				"patchline" : 				{
					"destination" : [ "obj-39", 0 ],
					"order" : 0,
					"source" : [ "obj-56", 0 ]
				}

			}
, 			{
				"patchline" : 				{
					"destination" : [ "obj-40", 1 ],
					"order" : 1,
					"source" : [ "obj-56", 0 ]
				}

			}
, 			{
				"patchline" : 				{
					"destination" : [ "obj-41", 1 ],
					"order" : 1,
					"source" : [ "obj-57", 0 ]
				}

			}
, 			{
				"patchline" : 				{
					"destination" : [ "obj-56", 0 ],
					"order" : 0,
					"source" : [ "obj-57", 0 ]
				}

			}
, 			{
				"patchline" : 				{
					"destination" : [ "obj-57", 0 ],
					"source" : [ "obj-58", 0 ]
				}

			}
, 			{
				"patchline" : 				{
					"destination" : [ "obj-58", 0 ],
					"source" : [ "obj-59", 2 ]
				}

			}
, 			{
				"patchline" : 				{
					"destination" : [ "obj-58", 0 ],
					"source" : [ "obj-59", 0 ]
				}

			}
, 			{
				"patchline" : 				{
					"destination" : [ "obj-15", 0 ],
					"order" : 1,
					"source" : [ "obj-6", 0 ]
				}

			}
, 			{
				"patchline" : 				{
					"destination" : [ "obj-7", 0 ],
					"order" : 0,
					"source" : [ "obj-6", 0 ]
				}

			}
, 			{
				"patchline" : 				{
					"destination" : [ "obj-68", 0 ],
					"source" : [ "obj-60", 0 ]
				}

			}
, 			{
				"patchline" : 				{
					"destination" : [ "obj-68", 0 ],
					"source" : [ "obj-62", 0 ]
				}

			}
, 			{
				"patchline" : 				{
					"destination" : [ "obj-62", 0 ],
					"source" : [ "obj-63", 0 ]
				}

			}
, 			{
				"patchline" : 				{
					"destination" : [ "obj-65", 0 ],
					"source" : [ "obj-63", 1 ]
				}

			}
, 			{
				"patchline" : 				{
					"destination" : [ "obj-60", 0 ],
					"order" : 1,
					"source" : [ "obj-64", 0 ]
				}

			}
, 			{
				"patchline" : 				{
					"destination" : [ "obj-63", 0 ],
					"order" : 0,
					"source" : [ "obj-64", 0 ]
				}

			}
, 			{
				"patchline" : 				{
					"destination" : [ "obj-68", 0 ],
					"source" : [ "obj-65", 0 ]
				}

			}
, 			{
				"patchline" : 				{
					"destination" : [ "obj-68", 0 ],
					"source" : [ "obj-66", 0 ]
				}

			}
, 			{
				"patchline" : 				{
					"destination" : [ "obj-125", 0 ],
					"order" : 1,
					"source" : [ "obj-67", 0 ]
				}

			}
, 			{
				"patchline" : 				{
					"destination" : [ "obj-37", 1 ],
					"order" : 0,
					"source" : [ "obj-67", 0 ]
				}

			}
, 			{
				"patchline" : 				{
					"destination" : [ "obj-59", 0 ],
					"order" : 0,
					"source" : [ "obj-68", 0 ]
				}

			}
, 			{
				"patchline" : 				{
					"destination" : [ "obj-61", 1 ],
					"order" : 1,
					"source" : [ "obj-68", 0 ]
				}

			}
, 			{
				"patchline" : 				{
					"destination" : [ "obj-19", 0 ],
					"order" : 1,
					"source" : [ "obj-7", 0 ]
				}

			}
, 			{
				"patchline" : 				{
					"destination" : [ "obj-8", 1 ],
					"order" : 0,
					"source" : [ "obj-7", 0 ]
				}

			}
, 			{
				"patchline" : 				{
					"destination" : [ "obj-31", 0 ],
					"order" : 1,
					"source" : [ "obj-8", 0 ]
				}

			}
, 			{
				"patchline" : 				{
					"destination" : [ "obj-9", 0 ],
					"order" : 0,
					"source" : [ "obj-8", 0 ]
				}

			}
 ],
		"parameters" : 		{
			"obj-10::obj-1" : [ "Width", "Width", 0 ],
			"obj-10::obj-2" : [ "Rate", "Rate", 0 ],
			"obj-10::obj-23" : [ "bypass[1]", "bypass", 0 ],
			"obj-10::obj-28" : [ "Center", "Center", 0 ],
			"obj-10::obj-3" : [ "Regen", "Regen", 0 ],
			"obj-15::obj-100" : [ "range[17]", "range", 0 ],
			"obj-15::obj-104" : [ "pictctrl[18]", "pictctrl[1]", 0 ],
			"obj-15::obj-119" : [ "Zoom", "Zoom", 0 ],
			"obj-15::obj-120" : [ "range", "range", 1 ],
			"obj-15::obj-125" : [ "pictctrl[17]", "pictctrl[1]", 0 ],
			"obj-15::obj-126" : [ "pictctrl[5]", "pictctrl[1]", 0 ],
			"obj-15::obj-128" : [ "range[1]", "range", 1 ],
			"obj-15::obj-13" : [ "Y center", "Y center", 0 ],
			"obj-15::obj-14" : [ "X center", "X center", 0 ],
			"obj-15::obj-141" : [ "range[2]", "range", 1 ],
			"obj-15::obj-148" : [ "pictctrl[19]", "pictctrl[1]", 0 ],
			"obj-15::obj-149" : [ "pictctrl[21]", "pictctrl[1]", 0 ],
			"obj-15::obj-150" : [ "pictctrl[72]", "pictctrl[1]", 0 ],
			"obj-15::obj-151" : [ "pictctrl[85]", "pictctrl[1]", 0 ],
			"obj-15::obj-30" : [ "Toggle tan warp", "Toggle tan warp", 0 ],
			"obj-15::obj-31" : [ "Mode", "Mode", 0 ],
			"obj-15::obj-32" : [ "Toggle cos warp", "Toggle cos warp", 0 ],
			"obj-15::obj-34" : [ "sin warp[1]", "Sin warp", 0 ],
			"obj-15::obj-35" : [ "Sin warp", "Sin warp", 0 ],
			"obj-15::obj-36" : [ "Cos warp", "Cos warp", 0 ],
			"obj-15::obj-37" : [ "cos warp[2]", "Cos warp", 0 ],
			"obj-15::obj-40" : [ "Toggle sine warp", "Toggle sine warp", 0 ],
			"obj-15::obj-47" : [ "pictctrl[71]", "pictctrl[1]", 0 ],
			"obj-15::obj-50" : [ "pictctrl[70]", "pictctrl[1]", 0 ],
			"obj-15::obj-54" : [ "tan warp[2]", "Tan warp", 0 ],
			"obj-15::obj-55" : [ "Tan warp", "Tan warp", 0 ],
			"obj-15::obj-65" : [ "pictctrl[20]", "pictctrl[1]", 0 ],
			"obj-15::obj-74" : [ "pictctrl[48]", "pictctrl[1]", 0 ],
			"obj-15::obj-79" : [ "pictctrl[73]", "pictctrl[1]", 0 ],
			"obj-15::obj-8" : [ "pictctrl[47]", "pictctrl[1]", 0 ],
			"obj-15::obj-96::obj-23" : [ "gswitch2[6]", "gswitch2", 0 ],
			"obj-17::obj-20" : [ "letterbox_menu[2]", "letterbox_menu", 0 ],
			"obj-17::obj-37" : [ "aspect_menu[2]", "aspect_menu", 0 ],
			"obj-19::obj-20" : [ "letterbox_menu", "letterbox_menu", 0 ],
			"obj-19::obj-37" : [ "aspect_menu", "aspect_menu", 0 ],
			"obj-1::obj-22" : [ "Mute[1]", "Mute", 0 ],
			"obj-1::obj-52" : [ "Level[1]", "Level", 0 ],
			"obj-1::obj-55" : [ "DSP[1]", "DSP", 0 ],
			"obj-1::obj-56" : [ "OutputChannel[1]", "OutputChannel", 0 ],
			"obj-24::obj-11" : [ "pictctrl[51]", "pictctrl[1]", 0 ],
			"obj-24::obj-16" : [ "pictctrl[49]", "pictctrl[1]", 0 ],
			"obj-24::obj-51" : [ "pictctrl[50]", "pictctrl[1]", 0 ],
			"obj-24::obj-9" : [ "Fader[1]", "Fader", 0 ],
			"obj-28::obj-10" : [ "range[6]", "range", 0 ],
			"obj-28::obj-12" : [ "pictctrl[89]", "pictctrl", 0 ],
			"obj-28::obj-15" : [ "pictctrl[86]", "pictctrl[2]", 0 ],
			"obj-28::obj-37" : [ "smoothing[1]", "Smoothing", 0 ],
			"obj-28::obj-5" : [ "pictctrl[88]", "pictctrl[1]", 0 ],
			"obj-28::obj-51" : [ "pictctrl[87]", "pictctrl[2]", 0 ],
			"obj-31::obj-1" : [ "textbutton[2]", "textbutton[1]", 0 ],
			"obj-31::obj-17" : [ "pictctrl[36]", "pictctrl[1]", 0 ],
			"obj-31::obj-19" : [ "pictctrl[35]", "pictctrl[1]", 0 ],
			"obj-31::obj-2::obj-23" : [ "gswitch2[2]", "gswitch2", 0 ],
			"obj-31::obj-44" : [ "Red mode", "Red mode", 0 ],
			"obj-31::obj-46" : [ "pictctrl[4]", "pictctrl[1]", 0 ],
			"obj-31::obj-48" : [ "Green mode", "Green mode", 0 ],
			"obj-31::obj-50" : [ "pictctrl[3]", "pictctrl[1]", 0 ],
			"obj-31::obj-54" : [ "Blue mode", "Blue mode", 0 ],
			"obj-31::obj-58" : [ "pictctrl[69]", "pictctrl[1]", 0 ],
			"obj-31::obj-6" : [ "pictctrl[37]", "pictctrl[1]", 0 ],
			"obj-31::obj-65" : [ "pictctrl[84]", "pictctrl[1]", 0 ],
			"obj-34::obj-11" : [ "pictctrl[12]", "pictctrl[1]", 0 ],
			"obj-34::obj-14" : [ "pictctrl[13]", "pictctrl[1]", 0 ],
			"obj-34::obj-22" : [ "Pattern", "range", 0 ],
			"obj-42::obj-1" : [ "Sync[3]", "Sync", 0 ],
			"obj-42::obj-129" : [ "Tempo", "Tempo", 0 ],
			"obj-42::obj-30" : [ "sync_source", "sync_source", 0 ],
			"obj-42::obj-76" : [ "Transport", "Transport", 0 ],
			"obj-44::obj-39" : [ "pictctrl[34]", "pictctrl[1]", 0 ],
			"obj-44::obj-6" : [ "pictctrl[15]", "pictctrl[1]", 0 ],
			"obj-44::obj-64" : [ "umenu[4]", "umenu", 0 ],
			"obj-45::obj-39" : [ "pictctrl[45]", "pictctrl[1]", 0 ],
			"obj-45::obj-6" : [ "pictctrl[46]", "pictctrl[1]", 0 ],
			"obj-45::obj-64" : [ "umenu[1]", "umenu", 0 ],
			"obj-6::obj-10" : [ "pictctrl[1]", "pictctrl[1]", 0 ],
			"obj-6::obj-112::obj-119" : [ "Speed high", "Speed high", 0 ],
			"obj-6::obj-112::obj-120" : [ "Rate range", "Rate range", 0 ],
			"obj-6::obj-112::obj-121" : [ "Speed low", "Speed low", 0 ],
			"obj-6::obj-112::obj-16" : [ "Playback range", "Playback range", 0 ],
			"obj-6::obj-112::obj-40" : [ "Playback controls", "Playback controls", 0 ],
			"obj-6::obj-112::obj-79" : [ "Playback position", "Playback position", 0 ],
			"obj-6::obj-112::obj-89" : [ "Reset range", "Reset range", 0 ],
			"obj-6::obj-112::obj-92" : [ "Reset speed", "Reset speed", 0 ],
			"obj-6::obj-20" : [ "pictctrl[2]", "pictctrl[1]", 0 ],
			"obj-6::obj-28" : [ "pictctrl[279]", "pictctrl[1]", 0 ],
			"obj-6::obj-40" : [ "pictctrl[283]", "pictctrl[1]", 0 ],
			"obj-6::obj-51" : [ "moviepath", "moviepath", 0 ],
			"obj-6::obj-60" : [ "pictctrl[282]", "pictctrl[1]", 0 ],
			"obj-6::obj-64" : [ "pictctrl[284]", "pictctrl[1]", 0 ],
			"obj-6::obj-81" : [ "pictctrl[281]", "pictctrl[1]", 0 ],
			"obj-6::obj-83" : [ "pictctrl[280]", "pictctrl[1]", 0 ],
			"obj-6::obj-89" : [ "moviename", "moviename", 0 ],
			"obj-7::obj-24" : [ "range[23]", "range", 0 ],
			"obj-7::obj-33" : [ "pictctrl[67]", "pictctrl[1]", 0 ],
			"obj-7::obj-37" : [ "Vertical", "Vertical", 0 ],
			"obj-7::obj-39" : [ "pictctrl[68]", "pictctrl[1]", 0 ],
			"obj-7::obj-56::obj-23" : [ "gswitch2[4]", "gswitch2", 0 ],
			"obj-7::obj-68" : [ "Horizontal", "Horizontal", 0 ],
			"obj-8::obj-17::obj-23" : [ "gswitch2[10]", "gswitch2", 0 ],
			"obj-8::obj-21" : [ "range[7]", "range", 0 ],
			"obj-8::obj-24" : [ "pictctrl[90]", "pictctrl[1]", 0 ],
			"obj-8::obj-26" : [ "Crossfade[1]", "Crossfade", 0 ],
			"obj-8::obj-39" : [ "Operator mode[1]", "Operator mode", 0 ],
			"obj-8::obj-51" : [ "pictctrl[75]", "pictctrl[1]", 0 ],
			"obj-8::obj-56::obj-23" : [ "gswitch2[9]", "gswitch2", 0 ],
			"obj-9::obj-20" : [ "letterbox_menu[4]", "letterbox_menu", 0 ],
			"obj-9::obj-37" : [ "aspect_menu[4]", "aspect_menu", 0 ],
			"parameterbanks" : 			{
				"0" : 				{
					"index" : 0,
					"name" : "",
					"parameters" : [ "-", "-", "-", "-", "-", "-", "-", "-" ]
				}

			}
,
			"parameter_overrides" : 			{
				"obj-10::obj-23" : 				{
					"parameter_longname" : "bypass[1]"
				}
,
				"obj-15::obj-104" : 				{
					"parameter_longname" : "pictctrl[18]"
				}
,
				"obj-15::obj-125" : 				{
					"parameter_longname" : "pictctrl[17]"
				}
,
				"obj-15::obj-148" : 				{
					"parameter_longname" : "pictctrl[19]"
				}
,
				"obj-15::obj-149" : 				{
					"parameter_longname" : "pictctrl[21]"
				}
,
				"obj-15::obj-150" : 				{
					"parameter_longname" : "pictctrl[72]"
				}
,
				"obj-15::obj-151" : 				{
					"parameter_longname" : "pictctrl[85]"
				}
,
				"obj-15::obj-47" : 				{
					"parameter_longname" : "pictctrl[71]"
				}
,
				"obj-15::obj-50" : 				{
					"parameter_longname" : "pictctrl[70]"
				}
,
				"obj-15::obj-65" : 				{
					"parameter_longname" : "pictctrl[20]"
				}
,
				"obj-15::obj-74" : 				{
					"parameter_longname" : "pictctrl[48]"
				}
,
				"obj-15::obj-79" : 				{
					"parameter_longname" : "pictctrl[73]"
				}
,
				"obj-15::obj-8" : 				{
					"parameter_longname" : "pictctrl[47]"
				}
,
				"obj-17::obj-20" : 				{
					"parameter_longname" : "letterbox_menu[2]"
				}
,
				"obj-17::obj-37" : 				{
					"parameter_longname" : "aspect_menu[2]"
				}
,
				"obj-1::obj-22" : 				{
					"parameter_longname" : "Mute[1]"
				}
,
				"obj-1::obj-52" : 				{
					"parameter_longname" : "Level[1]"
				}
,
				"obj-1::obj-55" : 				{
					"parameter_longname" : "DSP[1]"
				}
,
				"obj-1::obj-56" : 				{
					"parameter_longname" : "OutputChannel[1]"
				}
,
				"obj-24::obj-16" : 				{
					"parameter_longname" : "pictctrl[49]"
				}
,
				"obj-24::obj-51" : 				{
					"parameter_longname" : "pictctrl[50]"
				}
,
				"obj-24::obj-9" : 				{
					"parameter_longname" : "Fader[1]"
				}
,
				"obj-28::obj-12" : 				{
					"parameter_longname" : "pictctrl[89]"
				}
,
				"obj-28::obj-15" : 				{
					"parameter_longname" : "pictctrl[86]"
				}
,
				"obj-28::obj-37" : 				{
					"parameter_longname" : "smoothing[1]"
				}
,
				"obj-28::obj-5" : 				{
					"parameter_longname" : "pictctrl[88]"
				}
,
				"obj-28::obj-51" : 				{
					"parameter_longname" : "pictctrl[87]"
				}
,
				"obj-31::obj-46" : 				{
					"parameter_longname" : "pictctrl[4]"
				}
,
				"obj-31::obj-50" : 				{
					"parameter_longname" : "pictctrl[3]"
				}
,
				"obj-31::obj-58" : 				{
					"parameter_longname" : "pictctrl[69]"
				}
,
				"obj-34::obj-11" : 				{
					"parameter_longname" : "pictctrl[12]"
				}
,
				"obj-34::obj-14" : 				{
					"parameter_longname" : "pictctrl[13]"
				}
,
				"obj-42::obj-1" : 				{
					"parameter_longname" : "Sync[3]"
				}
,
				"obj-44::obj-6" : 				{
					"parameter_longname" : "pictctrl[15]"
				}
,
				"obj-45::obj-39" : 				{
					"parameter_longname" : "pictctrl[45]"
				}
,
				"obj-45::obj-6" : 				{
					"parameter_longname" : "pictctrl[46]"
				}
,
				"obj-45::obj-64" : 				{
					"parameter_longname" : "umenu[1]"
				}
,
				"obj-8::obj-24" : 				{
					"parameter_longname" : "pictctrl[90]"
				}
,
				"obj-8::obj-26" : 				{
					"parameter_longname" : "Crossfade[1]"
				}
,
				"obj-8::obj-39" : 				{
					"parameter_longname" : "Operator mode[1]"
				}
,
				"obj-8::obj-51" : 				{
					"parameter_longname" : "pictctrl[75]"
				}
,
				"obj-9::obj-20" : 				{
					"parameter_longname" : "letterbox_menu[4]"
				}
,
				"obj-9::obj-37" : 				{
					"parameter_longname" : "aspect_menu[4]"
				}

			}
,
			"inherited_shortname" : 1
		}
,
		"dependency_cache" : [ 			{
				"name" : "bp.Flanger.maxpat",
				"bootpath" : "C74:/packages/Beap/clippings/BEAP/Effects",
				"type" : "JSON",
				"implicit" : 1
			}
, 			{
				"name" : "bp.Global Transport.maxpat",
				"bootpath" : "C74:/packages/Beap/clippings/BEAP/Sequencer",
				"type" : "JSON",
				"implicit" : 1
			}
, 			{
				"name" : "bp.Stereo.maxpat",
				"bootpath" : "C74:/packages/Beap/clippings/BEAP/Output",
				"type" : "JSON",
				"implicit" : 1
			}
, 			{
				"name" : "data-handler-L.maxpat",
				"bootpath" : "C74:/packages/vizzie/patchers/utils",
				"type" : "JSON",
				"implicit" : 1
			}
, 			{
				"name" : "data-handler.maxpat",
				"bootpath" : "C74:/packages/vizzie/patchers/utils",
				"type" : "JSON",
				"implicit" : 1
			}
, 			{
				"name" : "exact_menu.maxpat",
				"bootpath" : "C74:/packages/vizzie/patchers/utils",
				"type" : "JSON",
				"implicit" : 1
			}
, 			{
				"name" : "lo_hi_UI_control.maxpat",
				"bootpath" : "C74:/packages/vizzie/patchers/utils",
				"type" : "JSON",
				"implicit" : 1
			}
, 			{
				"name" : "peppers.mp3",
				"bootpath" : "~/OneDrive/Documents/GitHub/cate-billings-max/assignment_4",
				"patcherrelativepath" : "../..",
				"type" : "Mp3",
				"implicit" : 1
			}
, 			{
				"name" : "playr_controls.maxpat",
				"bootpath" : "C74:/packages/vizzie/patchers/utils",
				"type" : "JSON",
				"implicit" : 1
			}
, 			{
				"name" : "snapshot_UI.maxpat",
				"bootpath" : "C74:/packages/vizzie/patchers/utils",
				"type" : "JSON",
				"implicit" : 1
			}
, 			{
				"name" : "video-handler.maxpat",
				"bootpath" : "C74:/packages/vizzie/patchers/utils",
				"type" : "JSON",
				"implicit" : 1
			}
, 			{
				"name" : "vizzie-datatexconvert.js",
				"bootpath" : "C74:/packages/vizzie/code",
				"type" : "TEXT",
				"implicit" : 1
			}
, 			{
				"name" : "vizzie-global.js",
				"bootpath" : "C74:/packages/vizzie/code",
				"type" : "TEXT",
				"implicit" : 1
			}
, 			{
				"name" : "vz.analyzr.maxpat",
				"bootpath" : "C74:/packages/vizzie/patchers",
				"type" : "JSON",
				"implicit" : 1
			}
, 			{
				"name" : "vz.audio2vizzie.maxpat",
				"bootpath" : "C74:/packages/vizzie/patchers",
				"type" : "JSON",
				"implicit" : 1
			}
, 			{
				"name" : "vz.averagr.maxpat",
				"bootpath" : "C74:/packages/vizzie/patchers",
				"type" : "JSON",
				"implicit" : 1
			}
, 			{
				"name" : "vz.beapconvertr.maxpat",
				"bootpath" : "C74:/packages/vizzie/patchers",
				"type" : "JSON",
				"implicit" : 1
			}
, 			{
				"name" : "vz.fadr.maxpat",
				"bootpath" : "C74:/packages/vizzie/patchers",
				"type" : "JSON",
				"implicit" : 1
			}
, 			{
				"name" : "vz.mixfadr.maxpat",
				"bootpath" : "C74:/packages/vizzie/patchers",
				"type" : "JSON",
				"implicit" : 1
			}
, 			{
				"name" : "vz.pixl8r.maxpat",
				"bootpath" : "C74:/packages/vizzie/patchers",
				"type" : "JSON",
				"implicit" : 1
			}
, 			{
				"name" : "vz.playr.maxpat",
				"bootpath" : "C74:/packages/vizzie/patchers",
				"type" : "JSON",
				"implicit" : 1
			}
, 			{
				"name" : "vz.reflectr.maxpat",
				"bootpath" : "C74:/packages/vizzie/patchers",
				"type" : "JSON",
				"implicit" : 1
			}
, 			{
				"name" : "vz.viewr.maxpat",
				"bootpath" : "C74:/packages/vizzie/patchers",
				"type" : "JSON",
				"implicit" : 1
			}
, 			{
				"name" : "vzgl-blackframe.maxpat",
				"bootpath" : "C74:/packages/vizzie/patchers/utils",
				"type" : "JSON",
				"implicit" : 1
			}
, 			{
				"name" : "vzgl-context.maxpat",
				"bootpath" : "C74:/packages/vizzie/patchers/utils",
				"type" : "JSON",
				"implicit" : 1
			}
, 			{
				"name" : "vzgl-disable.maxpat",
				"bootpath" : "C74:/packages/vizzie/patchers/utils",
				"type" : "JSON",
				"implicit" : 1
			}
, 			{
				"name" : "vzgl-object.maxpat",
				"bootpath" : "C74:/packages/vizzie/patchers/utils",
				"type" : "JSON",
				"implicit" : 1
			}
, 			{
				"name" : "vzgl-outputdim.maxpat",
				"bootpath" : "C74:/packages/vizzie/patchers/utils",
				"type" : "JSON",
				"implicit" : 1
			}
, 			{
				"name" : "vzgl-pwindow.maxpat",
				"bootpath" : "C74:/packages/vizzie/patchers/utils",
				"type" : "JSON",
				"implicit" : 1
			}
, 			{
				"name" : "vzgl-routegl.maxpat",
				"bootpath" : "C74:/packages/vizzie/patchers/utils",
				"type" : "JSON",
				"implicit" : 1
			}
, 			{
				"name" : "warpedmirror.genjit",
				"bootpath" : "C74:/packages/vizzie/patchers/gen",
				"type" : "gJIT",
				"implicit" : 1
			}
, 			{
				"name" : "windowresize.js",
				"bootpath" : "C74:/packages/vizzie/code",
				"type" : "TEXT",
				"implicit" : 1
			}
, 			{
				"name" : "xfade.genjit",
				"bootpath" : "~/AppData/Roaming/Cycling '74/Max 8/examples/jitter-examples/gen",
				"patcherrelativepath" : "../../../../../../../AppData/Roaming/Cycling '74/Max 8/examples/jitter-examples/gen",
				"type" : "gJIT",
				"implicit" : 1
			}
 ],
		"autosave" : 0
	}

}
